<?xml version="1.0" standalone="no"?>
<!DOCTYPE svg PUBLIC "-//W3C//DTD SVG 20010904//EN"
 "http://www.w3.org/TR/2001/REC-SVG-20010904/DTD/svg10.dtd">
<svg version="1.0" xmlns="http://www.w3.org/2000/svg"
 width="628.000000pt" height="628.000000pt" viewBox="0 0 628.000000 628.000000"
 preserveAspectRatio="xMidYMid meet">
<metadata>
Created by potrace 1.11, written by Peter Selinger 2001-2013
</metadata>
<g transform="translate(0.000000,628.000000) scale(0.100000,-0.100000)"
fill="#000000" stroke="none">
<path d="M2336 5747 c-16 -5 -40 -16 -54 -23 -15 -7 -397 -384 -850 -836 -684
-684 -827 -832 -850 -878 l-27 -55 0 -940 c-1 -1001 -2 -979 47 -1048 28 -39
51 -61 144 -137 43 -36 89 -74 101 -85 12 -11 34 -31 50 -44 15 -13 45 -38 65
-57 20 -19 39 -34 42 -34 3 0 16 -10 29 -23 33 -32 132 -117 202 -173 33 -26
62 -51 65 -55 5 -6 118 -102 205 -174 26 -22 55 -47 64 -55 9 -9 45 -40 81
-70 36 -30 67 -57 70 -60 3 -3 34 -30 70 -59 36 -30 72 -61 80 -68 8 -8 26
-23 40 -34 14 -11 41 -35 60 -52 116 -106 279 -101 387 10 29 29 52 57 51 61
-1 4 5 21 12 37 10 24 13 207 14 881 l1 851 677 676 c372 373 679 677 682 677
5 0 185 -116 390 -251 32 -22 62 -39 67 -39 5 0 9 -4 9 -10 0 -5 4 -10 9 -10
12 0 105 -61 109 -72 2 -4 8 -8 12 -8 5 0 49 -26 97 -57 48 -32 95 -62 104
-68 51 -32 140 -90 257 -167 73 -49 136 -88 141 -88 4 0 16 -9 26 -20 10 -11
24 -20 32 -20 7 0 13 -4 13 -10 0 -5 7 -10 15 -10 8 0 15 -4 15 -10 0 -5 4
-10 9 -10 5 0 48 -26 96 -57 74 -49 86 -60 82 -80 -2 -13 -1 -26 3 -28 4 -3 5
-20 1 -38 -5 -18 -5 -41 -1 -52 4 -11 6 -23 4 -27 -3 -4 -4 -38 -4 -75 0 -37
1 -77 0 -88 0 -11 0 -31 1 -45 0 -14 0 -32 0 -40 -1 -8 -1 -24 -1 -35 2 -30 1
-155 0 -200 0 -11 0 -31 1 -45 0 -14 0 -32 0 -40 -1 -8 -1 -24 -1 -35 2 -30 1
-155 0 -200 0 -11 0 -31 1 -45 0 -14 0 -31 0 -37 -1 -7 -1 -21 -1 -30 0 -10
-1 -49 -1 -88 -1 -38 -1 -77 0 -85 0 -8 0 -37 0 -65 0 -56 0 -61 1 -129 1 -26
-1 -50 -3 -53 -3 -2 -136 82 -297 186 -160 105 -294 191 -297 191 -3 0 -22 13
-43 30 -21 17 -40 30 -43 30 -3 0 -31 17 -63 39 -33 21 -120 78 -194 126 -74
48 -137 89 -140 92 -2 2 -5 219 -5 482 l-1 478 -28 57 c-16 33 -43 68 -64 84
-20 15 -39 30 -42 34 -10 13 -66 22 -135 22 -55 -1 -79 -6 -110 -25 -70 -41
-117 -106 -130 -179 -11 -63 -6 -1154 5 -1167 3 -3 4 -8 15 -41 4 -12 11 -22
16 -22 5 0 9 -5 9 -10 0 -16 47 -55 130 -107 41 -26 81 -53 88 -60 7 -7 19
-13 27 -13 7 0 15 -4 17 -9 2 -4 44 -34 93 -65 169 -108 290 -186 308 -201 9
-8 19 -15 22 -15 2 0 57 -34 122 -77 455 -295 616 -400 746 -485 144 -95 181
-111 252 -111 108 -1 204 64 242 163 17 42 18 124 18 1175 l0 1130 -23 46
c-20 42 -56 85 -94 114 -32 25 -331 218 -360 233 -16 8 -28 18 -28 23 0 5 -4
9 -9 9 -5 0 -49 26 -98 58 -48 32 -122 80 -163 107 -41 27 -133 86 -205 133
-71 46 -175 113 -230 149 -55 36 -157 102 -226 147 -115 75 -191 124 -244 158
-11 7 -59 39 -107 71 -48 31 -92 57 -98 57 -5 0 -10 4 -10 8 0 5 -22 16 -50
25 -67 22 -163 17 -218 -12 -29 -14 -317 -296 -866 -845 -829 -829 -863 -866
-871 -940 -1 -11 -3 -290 -4 -619 l-1 -599 -57 49 c-31 26 -65 55 -74 63 -35
31 -66 57 -124 105 -33 28 -62 52 -65 55 -3 3 -52 45 -110 94 -58 49 -109 94
-115 101 -5 6 -19 17 -31 25 -20 14 -106 88 -183 156 l-34 31 -1 768 -1 768
678 678 c628 628 681 678 700 667 12 -6 100 -62 194 -124 95 -62 182 -118 195
-125 12 -6 31 -20 42 -30 11 -11 23 -19 28 -19 4 0 42 -22 84 -50 86 -56 127
-70 199 -66 220 11 334 282 188 447 -23 25 -137 109 -178 129 -5 3 -59 37
-120 77 -60 40 -155 101 -210 137 -55 35 -105 69 -112 75 -7 6 -14 11 -17 11
-3 0 -56 33 -118 74 -144 94 -218 114 -312 83z"/>
</g>
</svg>
