<?xml version="1.0" encoding="utf-8"?>
<!-- Generator: Adobe Illustrator 16.0.0, SVG Export Plug-In . SVG Version: 6.00 Build 0)  -->
<!DOCTYPE svg PUBLIC "-//W3C//DTD SVG 1.1//EN" "http://www.w3.org/Graphics/SVG/1.1/DTD/svg11.dtd">
<svg version="1.1" id="Layer_1" xmlns="http://www.w3.org/2000/svg" xmlns:xlink="http://www.w3.org/1999/xlink" x="0px" y="0px"
	 width="157px" height="147px" viewBox="0 0 157 147" enable-background="new 0 0 157 147" xml:space="preserve">
<g>
	<path fill="#F89E37" d="M144.883,72.315v53.426c0,0.146-0.004,0.29-0.015,0.436c0.015,1.218-0.323,2.474-1.042,3.572
		c-1.937,2.979-5.918,3.825-8.903,1.888L94.91,105.663c-2.001-1.299-3.044-3.529-2.923-5.742V74.184
		c0-3.557,2.884-6.438,6.445-6.438c1.771,0,3.38,0.719,4.545,1.883c1.166,1.168,1.882,2.778,1.882,4.56V96.77l27.145,17.629v-37.83
		l-37.193-24.16L60.852,86.37v41.126c0,3.74-3.042,6.783-6.789,6.783c-0.628,0-1.232-0.09-1.809-0.25c0,0-0.005,0-0.008,0
		c-0.093-0.03-0.182-0.062-0.27-0.076c-0.093-0.032-0.191-0.061-0.283-0.1c-0.744-0.271-1.463-0.672-2.093-1.228l-33.367-28.431
		c-1.654-1.405-2.463-3.438-2.377-5.451V98.73c-0.01-0.065-0.01-0.136-0.01-0.205V54.69c0-0.547,0.07-1.092,0.195-1.605
		c0.006-0.026,0.009-0.061,0.025-0.092c0.271-1.191,0.874-2.326,1.811-3.261l39.74-39.739c1.167-1.164,2.645-1.815,4.172-1.955
		c0.133-0.013,0.275-0.023,0.411-0.035C60.302,8,60.408,8,60.51,8c1.271,0,2.547,0.356,3.689,1.1l19.472,12.639
		c3.148,2.042,4.041,6.25,2,9.389c-2.043,3.142-6.247,4.042-9.394,2l-14.91-9.686L27.426,57.384v38.519l19.844,16.922v-29.17
		c0-0.676,0.099-1.312,0.28-1.936c0.01-0.025,0.019-0.054,0.028-0.092c0.3-1.062,0.878-2.062,1.716-2.904l39.743-39.746
		c1.149-1.144,2.605-1.795,4.101-1.949c0.02,0,0.031,0,0.052-0.003c1.509-0.179,3.094,0.149,4.474,1.05l43.958,28.543
		c0.388,0.254,0.744,0.542,1.065,0.858c0.106,0.083,0.207,0.189,0.307,0.281C144.167,68.922,144.883,70.537,144.883,72.315"/>
</g>
</svg>
