<?xml version="1.0" encoding="utf-8"?>
<!-- Generator: Adobe Illustrator 16.0.0, SVG Export Plug-In . SVG Version: 6.00 Build 0)  -->
<!DOCTYPE svg PUBLIC "-//W3C//DTD SVG 1.1//EN" "http://www.w3.org/Graphics/SVG/1.1/DTD/svg11.dtd">
<svg version="1.1" id="Layer_1" xmlns="http://www.w3.org/2000/svg" xmlns:xlink="http://www.w3.org/1999/xlink" x="0px" y="0px"
	 width="578px" height="147px" viewBox="0 0 578 147" enable-background="new 0 0 578 147" xml:space="preserve">
<text transform="matrix(1.0052 0 0 1 163.4414 94.96)" fill="#4F545B" font-family="'ProximaNova-Bold'" font-size="59.6909">SIMPLE</text>
<g>
	<path fill="#7554A3" d="M147.464,73.403l-0.291,54.026c-0.001,0.148-0.005,0.293-0.018,0.44c0.009,1.231-0.339,2.499-1.073,3.606
		c-1.975,3.005-6.005,3.836-9.013,1.861l-40.32-26.484c-2.016-1.324-3.059-3.585-2.924-5.821l0.14-26.026
		c0.019-3.596,2.951-6.498,6.552-6.479c1.792,0.009,3.414,0.745,4.586,1.927c1.172,1.188,1.888,2.82,1.878,4.618l-0.123,22.836
		l27.354,17.975l0.206-38.249L96.938,53.001L62.414,87.158l-0.224,41.588c-0.02,3.783-3.114,6.844-6.901,6.823
		c-0.636-0.003-1.247-0.099-1.829-0.263c0,0-0.004,0-0.008,0c-0.094-0.032-0.184-0.062-0.273-0.078
		c-0.093-0.034-0.192-0.062-0.284-0.102c-0.751-0.278-1.476-0.688-2.111-1.251l-33.586-28.933c-1.665-1.429-2.472-3.485-2.375-5.523
		v-0.016c-0.009-0.069-0.009-0.136-0.008-0.206l0.238-44.33c0.003-0.554,0.078-1.104,0.206-1.624
		c0.006-0.026,0.009-0.061,0.025-0.092c0.281-1.203,0.896-2.347,1.849-3.288L57.537,9.896c1.186-1.17,2.684-1.822,4.229-1.954
		c0.135-0.012,0.278-0.022,0.416-0.033c0.104-0.003,0.21-0.002,0.314-0.002c1.285,0.007,2.574,0.374,3.725,1.132l19.622,12.887
		c3.172,2.082,4.052,6.342,1.97,9.505c-2.083,3.167-6.339,4.053-9.51,1.972l-15.024-9.876L28.77,57.666l-0.209,38.952l19.975,17.217
		l0.159-29.495c0.003-0.684,0.107-1.328,0.293-1.954c0.01-0.028,0.02-0.053,0.029-0.092c0.31-1.074,0.899-2.08,1.75-2.929
		l40.406-39.974c1.168-1.15,2.644-1.8,4.158-1.948c0.02,0,0.031,0,0.053-0.003c1.526-0.172,3.127,0.168,4.519,1.086l44.296,29.103
		c0.392,0.26,0.749,0.553,1.072,0.874c0.107,0.084,0.209,0.191,0.309,0.287C146.759,69.969,147.474,71.604,147.464,73.403"/>
</g>
<text transform="matrix(1.0052 0 0 1 379.9219 95.4365)" fill="#4F545B" font-family="'ProximaNova-Regular'" font-size="59.6909" letter-spacing="3.979">HOME</text>
</svg>
